<svg width="192" height="192" viewBox="0 0 192 192" fill="none" xmlns="http://www.w3.org/2000/svg">
<rect width="192" height="192" rx="24" fill="#020617"/>
<path d="M96 48C69.5 48 48 69.5 48 96C48 122.5 69.5 144 96 144C122.5 144 144 122.5 144 96C144 69.5 122.5 48 96 48Z" fill="white"/>
<path d="M96 64C78.3 64 64 78.3 64 96C64 113.7 78.3 128 96 128C113.7 128 128 113.7 128 96C128 78.3 113.7 64 96 64Z" fill="#020617"/>
<path d="M96 80C87.2 80 80 87.2 80 96C80 104.8 87.2 112 96 112C104.8 112 112 104.8 112 96C112 87.2 104.8 80 96 80Z" fill="white"/>
</svg>
